<svg xmlns="http://www.w3.org/2000/svg" width="900" height="360" viewBox="0 0 900 360">
  
  <defs>
    <linearGradient id="c6-paper" x1="0" y1="0" x2="1" y2="1">
      <stop offset="0" stop-color="#fffaf1"/>
      <stop offset=".62" stop-color="#f8efe1"/>
      <stop offset="1" stop-color="#fff9ef"/>
    </linearGradient>
    <linearGradient id="c6-mist" x1="0" y1="0" x2="1" y2="0">
      <stop offset="0" stop-color="#fffaf1" stop-opacity=".08"/>
      <stop offset=".38" stop-color="#fffaf1" stop-opacity=".28"/>
      <stop offset="1" stop-color="#fffaf1" stop-opacity=".02"/>
    </linearGradient>
    <filter id="c6-soft" x="-20%" y="-20%" width="140%" height="140%">
      <feGaussianBlur stdDeviation="5"/>
    </filter>
    <radialGradient id="c6-sun" cx="50%" cy="50%" r="50%">
      <stop offset="0" stop-color="#7f936f" stop-opacity=".72"/>
      <stop offset="1" stop-color="#7f936f" stop-opacity="0"/>
    </radialGradient>
    <style>
      .ink-c6{fill:none;stroke:#68716a;stroke-width:2.2;stroke-linecap:round;stroke-linejoin:round;opacity:.28}
      .wash-c6{fill:#c7d3c4;opacity:.24}
      .accent-c6{fill:#7f936f;opacity:.45}
      .soft-c6{filter:url(#c6-soft)}
    </style>
  </defs>
  <rect width="900" height="360" fill="url(#c6-paper)"/>
  <rect width="900" height="360" fill="url(#c6-mist)"/>
  
  <path class="wash-c6 soft-c6" d="M0 286 C72 245.5 122 266.5 184 224.5 C244 184.75 292 254.5 348 217 C422 168.25 512 259 620 217 L620 381 L0 381 Z"/>
  <path class="ink-c6" d="M20 283 C88 238 126 268 176 232 C236 190 286 260.5 340 223 C410 176.5 486 257.5 585 221.5"/>
  <path class="ink-c6" opacity=".18" d="M146 293.5 C208 257.5 260 289.75 322 254.5 C390 214 462 272.5 574 251.5"/>
  <path class="ink-c6" opacity=".16" d="M482 250 C546 228 604 240 670 212 C728 188 780 210 850 172"/>
  
  <g transform="translate(480 35)"><circle cx="70" cy="70" r="44" fill="#7f936f" opacity=".18"/></g>
  <g transform="translate(620 48) scale(0.34)" opacity=".76">
    <path d="M0 22 C28 -6 56 -2 86 18 C56 12 34 18 12 34 Z" fill="#f8f1e8" stroke="#6e6255" stroke-width="2" opacity=".92"/>
    <path d="M80 18 C104 16 122 24 140 38" class="ink-c6"/>
    <path d="M22 29 C36 38 56 40 84 24" fill="none" stroke="#1f2728" stroke-width="8" stroke-linecap="round" opacity=".72"/>
    <path d="M140 38 L154 34" stroke="#b63a32" stroke-width="3" stroke-linecap="round"/>
  </g>
</svg>