<svg xmlns="http://www.w3.org/2000/svg" width="900" height="360" viewBox="0 0 900 360">
  
  <defs>
    <linearGradient id="c8-paper" x1="0" y1="0" x2="1" y2="1">
      <stop offset="0" stop-color="#fffaf1"/>
      <stop offset=".62" stop-color="#f8efe1"/>
      <stop offset="1" stop-color="#fff9ef"/>
    </linearGradient>
    <linearGradient id="c8-mist" x1="0" y1="0" x2="1" y2="0">
      <stop offset="0" stop-color="#fffaf1" stop-opacity=".08"/>
      <stop offset=".38" stop-color="#fffaf1" stop-opacity=".28"/>
      <stop offset="1" stop-color="#fffaf1" stop-opacity=".02"/>
    </linearGradient>
    <filter id="c8-soft" x="-20%" y="-20%" width="140%" height="140%">
      <feGaussianBlur stdDeviation="5"/>
    </filter>
    <radialGradient id="c8-sun" cx="50%" cy="50%" r="50%">
      <stop offset="0" stop-color="#8a9a66" stop-opacity=".72"/>
      <stop offset="1" stop-color="#8a9a66" stop-opacity="0"/>
    </radialGradient>
    <style>
      .ink-c8{fill:none;stroke:#68716a;stroke-width:2.2;stroke-linecap:round;stroke-linejoin:round;opacity:.28}
      .wash-c8{fill:#cdd9c2;opacity:.24}
      .accent-c8{fill:#8a9a66;opacity:.45}
      .soft-c8{filter:url(#c8-soft)}
    </style>
  </defs>
  <rect width="900" height="360" fill="url(#c8-paper)"/>
  <rect width="900" height="360" fill="url(#c8-mist)"/>
  
  <path class="wash-c8 soft-c8" d="M0 286 C72 245.5 122 266.5 184 224.5 C244 184.75 292 254.5 348 217 C422 168.25 512 259 620 217 L620 381 L0 381 Z"/>
  <path class="ink-c8" d="M20 283 C88 238 126 268 176 232 C236 190 286 260.5 340 223 C410 176.5 486 257.5 585 221.5"/>
  <path class="ink-c8" opacity=".18" d="M146 293.5 C208 257.5 260 289.75 322 254.5 C390 214 462 272.5 574 251.5"/>
  <path class="ink-c8" opacity=".16" d="M482 250 C546 228 604 240 670 212 C728 188 780 210 850 172"/>
  
  <g transform="translate(480 35) rotate(8)">
      <path d="M26 -18 C20 42 28 98 18 166" stroke="#75806e" stroke-width="2" stroke-linecap="round" fill="none" opacity=".48"/>
      <path d="M54 -24 C44 42 52 104 42 184" stroke="#75806e" stroke-width="2" stroke-linecap="round" fill="none" opacity=".48"/>
      <path d="M20 0 C54 -9 62 -4 35 10" fill="#7f956f" opacity=".24"/><path d="M24 18 C57 9 64 14 38 28" fill="#7f956f" opacity=".24"/><path d="M28 36 C60 27 66 32 41 46" fill="#7f956f" opacity=".24"/><path d="M32 54 C63 45 68 50 44 64" fill="#7f956f" opacity=".24"/><path d="M36 72 C66 63 70 68 47 82" fill="#7f956f" opacity=".24"/><path d="M40 90 C69 81 72 86 50 100" fill="#7f956f" opacity=".24"/><path d="M44 108 C72 99 74 104 53 118" fill="#7f956f" opacity=".24"/><path d="M48 126 C75 117 76 122 56 136" fill="#7f956f" opacity=".24"/><path d="M52 144 C78 135 78 140 59 154" fill="#7f956f" opacity=".24"/><path d="M56 162 C81 153 80 158 62 172" fill="#7f956f" opacity=".24"/>
    </g>
  <g transform="translate(620 48) scale(0.34)" opacity=".76">
    <path d="M0 22 C28 -6 56 -2 86 18 C56 12 34 18 12 34 Z" fill="#f8f1e8" stroke="#6e6255" stroke-width="2" opacity=".92"/>
    <path d="M80 18 C104 16 122 24 140 38" class="ink-c8"/>
    <path d="M22 29 C36 38 56 40 84 24" fill="none" stroke="#1f2728" stroke-width="8" stroke-linecap="round" opacity=".72"/>
    <path d="M140 38 L154 34" stroke="#b63a32" stroke-width="3" stroke-linecap="round"/>
  </g>
</svg>