<svg xmlns="http://www.w3.org/2000/svg" width="720" height="300" viewBox="0 0 720 300">
  
  <defs>
    <linearGradient id="h1-paper" x1="0" y1="0" x2="1" y2="1">
      <stop offset="0" stop-color="#fffaf1"/>
      <stop offset=".62" stop-color="#f8efe1"/>
      <stop offset="1" stop-color="#fff9ef"/>
    </linearGradient>
    <linearGradient id="h1-mist" x1="0" y1="0" x2="1" y2="0">
      <stop offset="0" stop-color="#fffaf1" stop-opacity=".08"/>
      <stop offset=".38" stop-color="#fffaf1" stop-opacity=".28"/>
      <stop offset="1" stop-color="#fffaf1" stop-opacity=".02"/>
    </linearGradient>
    <filter id="h1-soft" x="-20%" y="-20%" width="140%" height="140%">
      <feGaussianBlur stdDeviation="5"/>
    </filter>
    <radialGradient id="h1-sun" cx="50%" cy="50%" r="50%">
      <stop offset="0" stop-color="#d89a9a" stop-opacity=".72"/>
      <stop offset="1" stop-color="#d89a9a" stop-opacity="0"/>
    </radialGradient>
    <style>
      .ink-h1{fill:none;stroke:#68716a;stroke-width:2.2;stroke-linecap:round;stroke-linejoin:round;opacity:.28}
      .wash-h1{fill:#c6d9c6;opacity:.24}
      .accent-h1{fill:#d89a9a;opacity:.45}
      .soft-h1{filter:url(#h1-soft)}
    </style>
  </defs>
  <rect width="720" height="300" fill="url(#h1-paper)"/>
  <circle cx="594" cy="80" r="42" fill="url(#h1-sun)"/>
  
  <path class="wash-h1 soft-h1" d="M0 232 C72 183.4 122 208.6 184 158.2 C244 110.5 292 194.2 348 149.2 C422 90.69999999999999 512 199.6 620 149.2 L620 327 L0 327 Z"/>
  <path class="ink-h1" d="M20 228.4 C88 174.4 126 210.4 176 167.2 C236 116.8 286 201.4 340 156.39999999999998 C410 100.6 486 197.8 585 154.6"/>
  <path class="ink-h1" opacity=".18" d="M146 241 C208 197.8 260 236.5 322 194.2 C390 145.6 462 215.8 574 190.6"/>
  <g transform="translate(432 96)">
      <ellipse cx="78" cy="74" rx="72" ry="18" fill="#8aa08b" opacity=".22"/>
      <path d="M92 72 C104 28 112 0 124 -34" stroke="#75806e" stroke-width="2" stroke-linecap="round" fill="none" opacity=".48"/>
      <path d="M132 62 C146 22 158 -4 174 -28" stroke="#75806e" stroke-width="2" stroke-linecap="round" fill="none" opacity=".48"/>
      <g transform="translate(124 -42)">
        <path d="M0 0 C-18 -24 -2 -48 0 -20 C5 -50 22 -22 0 0" fill="#d89a9a" opacity=".5"/>
        <path d="M0 0 C18 -22 40 -14 10 5 C38 8 16 28 0 0" fill="#d89a9a" opacity=".4"/>
      </g>
      <circle cx="172" cy="-34" r="12" fill="#d89a9a" opacity=".35"/>
    </g>
  
  <rect width="720" height="300" fill="url(#h1-mist)"/>
</svg>