<svg xmlns="http://www.w3.org/2000/svg" width="720" height="300" viewBox="0 0 720 300">
  
  <defs>
    <linearGradient id="h8-paper" x1="0" y1="0" x2="1" y2="1">
      <stop offset="0" stop-color="#fffaf1"/>
      <stop offset=".62" stop-color="#f8efe1"/>
      <stop offset="1" stop-color="#fff9ef"/>
    </linearGradient>
    <linearGradient id="h8-mist" x1="0" y1="0" x2="1" y2="0">
      <stop offset="0" stop-color="#fffaf1" stop-opacity=".08"/>
      <stop offset=".38" stop-color="#fffaf1" stop-opacity=".28"/>
      <stop offset="1" stop-color="#fffaf1" stop-opacity=".02"/>
    </linearGradient>
    <filter id="h8-soft" x="-20%" y="-20%" width="140%" height="140%">
      <feGaussianBlur stdDeviation="5"/>
    </filter>
    <radialGradient id="h8-sun" cx="50%" cy="50%" r="50%">
      <stop offset="0" stop-color="#d79373" stop-opacity=".72"/>
      <stop offset="1" stop-color="#d79373" stop-opacity="0"/>
    </radialGradient>
    <style>
      .ink-h8{fill:none;stroke:#68716a;stroke-width:2.2;stroke-linecap:round;stroke-linejoin:round;opacity:.28}
      .wash-h8{fill:#d5d7cf;opacity:.24}
      .accent-h8{fill:#d79373;opacity:.45}
      .soft-h8{filter:url(#h8-soft)}
    </style>
  </defs>
  <rect width="720" height="300" fill="url(#h8-paper)"/>
  <circle cx="628" cy="58" r="42" fill="url(#h8-sun)"/>
  
  <path class="wash-h8 soft-h8" d="M0 232 C72 183.4 122 208.6 184 158.2 C244 110.5 292 194.2 348 149.2 C422 90.69999999999999 512 199.6 620 149.2 L620 327 L0 327 Z"/>
  <path class="ink-h8" d="M20 228.4 C88 174.4 126 210.4 176 167.2 C236 116.8 286 201.4 340 156.39999999999998 C410 100.6 486 197.8 585 154.6"/>
  <path class="ink-h8" opacity=".18" d="M146 241 C208 197.8 260 236.5 322 194.2 C390 145.6 462 215.8 574 190.6"/>
  <g transform="translate(432 22)"><circle cx="70" cy="70" r="44" fill="#d79373" opacity=".18"/></g>
  
  <rect width="720" height="300" fill="url(#h8-mist)"/>
</svg>