<svg xmlns="http://www.w3.org/2000/svg" width="720" height="300" viewBox="0 0 720 300">
  
  <defs>
    <linearGradient id="h4-paper" x1="0" y1="0" x2="1" y2="1">
      <stop offset="0" stop-color="#fffaf1"/>
      <stop offset=".62" stop-color="#f8efe1"/>
      <stop offset="1" stop-color="#fff9ef"/>
    </linearGradient>
    <linearGradient id="h4-mist" x1="0" y1="0" x2="1" y2="0">
      <stop offset="0" stop-color="#fffaf1" stop-opacity=".08"/>
      <stop offset=".38" stop-color="#fffaf1" stop-opacity=".28"/>
      <stop offset="1" stop-color="#fffaf1" stop-opacity=".02"/>
    </linearGradient>
    <filter id="h4-soft" x="-20%" y="-20%" width="140%" height="140%">
      <feGaussianBlur stdDeviation="5"/>
    </filter>
    <radialGradient id="h4-sun" cx="50%" cy="50%" r="50%">
      <stop offset="0" stop-color="#9b6a3b" stop-opacity=".72"/>
      <stop offset="1" stop-color="#9b6a3b" stop-opacity="0"/>
    </radialGradient>
    <style>
      .ink-h4{fill:none;stroke:#68716a;stroke-width:2.2;stroke-linecap:round;stroke-linejoin:round;opacity:.28}
      .wash-h4{fill:#c9d8be;opacity:.24}
      .accent-h4{fill:#9b6a3b;opacity:.45}
      .soft-h4{filter:url(#h4-soft)}
    </style>
  </defs>
  <rect width="720" height="300" fill="url(#h4-paper)"/>
  <circle cx="594" cy="58" r="42" fill="url(#h4-sun)"/>
  
  <path class="wash-h4 soft-h4" d="M0 232 C72 183.4 122 208.6 184 158.2 C244 110.5 292 194.2 348 149.2 C422 90.69999999999999 512 199.6 620 149.2 L620 327 L0 327 Z"/>
  <path class="ink-h4" d="M20 228.4 C88 174.4 126 210.4 176 167.2 C236 116.8 286 201.4 340 156.39999999999998 C410 100.6 486 197.8 585 154.6"/>
  <path class="ink-h4" opacity=".18" d="M146 241 C208 197.8 260 236.5 322 194.2 C390 145.6 462 215.8 574 190.6"/>
  <g transform="translate(432 22) rotate(-5)">
      <path d="M26 -18 C20 42 28 98 18 166" stroke="#75806e" stroke-width="2" stroke-linecap="round" fill="none" opacity=".48"/>
      <path d="M54 -24 C44 42 52 104 42 184" stroke="#75806e" stroke-width="2" stroke-linecap="round" fill="none" opacity=".48"/>
      <path d="M20 0 C54 -9 62 -4 35 10" fill="#7f956f" opacity=".24"/><path d="M24 18 C57 9 64 14 38 28" fill="#7f956f" opacity=".24"/><path d="M28 36 C60 27 66 32 41 46" fill="#7f956f" opacity=".24"/><path d="M32 54 C63 45 68 50 44 64" fill="#7f956f" opacity=".24"/><path d="M36 72 C66 63 70 68 47 82" fill="#7f956f" opacity=".24"/><path d="M40 90 C69 81 72 86 50 100" fill="#7f956f" opacity=".24"/><path d="M44 108 C72 99 74 104 53 118" fill="#7f956f" opacity=".24"/><path d="M48 126 C75 117 76 122 56 136" fill="#7f956f" opacity=".24"/><path d="M52 144 C78 135 78 140 59 154" fill="#7f956f" opacity=".24"/><path d="M56 162 C81 153 80 158 62 172" fill="#7f956f" opacity=".24"/>
    </g>
  
  <rect width="720" height="300" fill="url(#h4-mist)"/>
</svg>