<svg xmlns="http://www.w3.org/2000/svg" width="720" height="300" viewBox="0 0 720 300">
  
  <defs>
    <linearGradient id="h0-paper" x1="0" y1="0" x2="1" y2="1">
      <stop offset="0" stop-color="#fffaf1"/>
      <stop offset=".62" stop-color="#f8efe1"/>
      <stop offset="1" stop-color="#fff9ef"/>
    </linearGradient>
    <linearGradient id="h0-mist" x1="0" y1="0" x2="1" y2="0">
      <stop offset="0" stop-color="#fffaf1" stop-opacity=".08"/>
      <stop offset=".38" stop-color="#fffaf1" stop-opacity=".28"/>
      <stop offset="1" stop-color="#fffaf1" stop-opacity=".02"/>
    </linearGradient>
    <filter id="h0-soft" x="-20%" y="-20%" width="140%" height="140%">
      <feGaussianBlur stdDeviation="5"/>
    </filter>
    <radialGradient id="h0-sun" cx="50%" cy="50%" r="50%">
      <stop offset="0" stop-color="#b63a32" stop-opacity=".72"/>
      <stop offset="1" stop-color="#b63a32" stop-opacity="0"/>
    </radialGradient>
    <style>
      .ink-h0{fill:none;stroke:#68716a;stroke-width:2.2;stroke-linecap:round;stroke-linejoin:round;opacity:.28}
      .wash-h0{fill:#d9dfc9;opacity:.24}
      .accent-h0{fill:#b63a32;opacity:.45}
      .soft-h0{filter:url(#h0-soft)}
    </style>
  </defs>
  <rect width="720" height="300" fill="url(#h0-paper)"/>
  <circle cx="560" cy="58" r="42" fill="url(#h0-sun)"/>
  
  <path class="wash-h0 soft-h0" d="M0 232 C72 183.4 122 208.6 184 158.2 C244 110.5 292 194.2 348 149.2 C422 90.69999999999999 512 199.6 620 149.2 L620 327 L0 327 Z"/>
  <path class="ink-h0" d="M20 228.4 C88 174.4 126 210.4 176 167.2 C236 116.8 286 201.4 340 156.39999999999998 C410 100.6 486 197.8 585 154.6"/>
  <path class="ink-h0" opacity=".18" d="M146 241 C208 197.8 260 236.5 322 194.2 C390 145.6 462 215.8 574 190.6"/>
  <g transform="translate(432 22)"><circle cx="70" cy="70" r="44" fill="#b63a32" opacity=".18"/></g>
  <g transform="translate(356 32) scale(0.45)" opacity=".76">
    <path d="M0 22 C28 -6 56 -2 86 18 C56 12 34 18 12 34 Z" fill="#f8f1e8" stroke="#6e6255" stroke-width="2" opacity=".92"/>
    <path d="M80 18 C104 16 122 24 140 38" class="ink-h0"/>
    <path d="M22 29 C36 38 56 40 84 24" fill="none" stroke="#1f2728" stroke-width="8" stroke-linecap="round" opacity=".72"/>
    <path d="M140 38 L154 34" stroke="#b63a32" stroke-width="3" stroke-linecap="round"/>
  </g>
  <rect width="720" height="300" fill="url(#h0-mist)"/>
</svg>