<svg xmlns="http://www.w3.org/2000/svg" width="900" height="1600" viewBox="0 0 900 1600">
  <defs>
    <linearGradient id="t2-paper" x1="0" y1="0" x2="1" y2="1">
      <stop offset="0" stop-color="#fffaf1"/>
      <stop offset=".56" stop-color="#f8efe1"/>
      <stop offset="1" stop-color="#fff8ef"/>
    </linearGradient>
    <filter id="t2-blur"><feGaussianBlur stdDeviation="6"/></filter>
    <style>
      .wash{fill:#c5d8a8;opacity:.23;filter:url(#t2-blur)}
      .ink{fill:none;stroke:#657069;stroke-width:2.2;stroke-linecap:round;stroke-linejoin:round;opacity:.28}
      .accent{fill:#8a9d48;opacity:.48}
      .line{stroke:#8a9d48;stroke-width:3;stroke-linecap:round;fill:none;opacity:.48}
      .thin{stroke:#657069;stroke-width:1.7;stroke-linecap:round;fill:none;opacity:.3}
    </style>
  </defs>
  <rect width="900" height="1600" fill="url(#t2-paper)"/>
  <circle cx="720" cy="150" r="78" fill="#8a9d48" opacity=".12"/>
  <path class="wash" d="M0 560 C90 480 156 538 238 442 C318 350 370 520 468 422 C592 300 718 468 860 378 L860 860 L0 860 Z"/>
  <path class="ink" d="M20 552 C88 492 154 536 230 450 C310 360 368 518 462 428 C584 310 704 470 838 386"/>
  <path class="thin" d="M182 610 C282 542 350 596 452 534 C546 476 648 546 806 500"/>
  <g transform="translate(566 166)"><path class="line" d="M20 0 C4 128 24 202 6 312"/><path class="line" d="M72 -16 C56 108 78 220 58 336"/><path d="M34 34 C79 16 92 26 52 56" fill="#8a9d48" opacity=".25" transform="rotate(-14 34 34)"/><path d="M41 65 C86 47 99 57 59 87" fill="#8a9d48" opacity=".25" transform="rotate(18 41 65)"/><path d="M48 96 C93 78 106 88 66 118" fill="#8a9d48" opacity=".25" transform="rotate(-14 48 96)"/><path d="M55 127 C100 109 113 119 73 149" fill="#8a9d48" opacity=".25" transform="rotate(18 55 127)"/><path d="M62 158 C107 140 120 150 80 180" fill="#8a9d48" opacity=".25" transform="rotate(-14 62 158)"/><path d="M69 189 C114 171 127 181 87 211" fill="#8a9d48" opacity=".25" transform="rotate(18 69 189)"/><path d="M76 220 C121 202 134 212 94 242" fill="#8a9d48" opacity=".25" transform="rotate(-14 76 220)"/><path d="M83 251 C128 233 141 243 101 273" fill="#8a9d48" opacity=".25" transform="rotate(18 83 251)"/><path d="M90 282 C135 264 148 274 108 304" fill="#8a9d48" opacity=".25" transform="rotate(-14 90 282)"/></g>
  <path class="thin" d="M88 720 C188 668 270 712 360 654"/>
  <path class="thin" d="M580 1000 C672 960 742 1010 832 952"/>
  <text x="80" y="210" font-family="serif" font-size="96" fill="#222b2b" opacity=".92">惊蛰</text>
  <rect x="84" y="246" width="178" height="52" rx="26" fill="#fff7ea" stroke="#8a9d48" stroke-width="2" opacity=".76"/>
  <text x="112" y="282" font-family="serif" font-size="28" fill="#8a9d48" opacity=".9">二十四节气</text>
</svg>