<svg xmlns="http://www.w3.org/2000/svg" width="900" height="1600" viewBox="0 0 900 1600">
  <defs>
    <linearGradient id="t12-paper" x1="0" y1="0" x2="1" y2="1">
      <stop offset="0" stop-color="#fffaf1"/>
      <stop offset=".56" stop-color="#f8efe1"/>
      <stop offset="1" stop-color="#fff8ef"/>
    </linearGradient>
    <filter id="t12-blur"><feGaussianBlur stdDeviation="6"/></filter>
    <style>
      .wash{fill:#dbc18b;opacity:.23;filter:url(#t12-blur)}
      .ink{fill:none;stroke:#657069;stroke-width:2.2;stroke-linecap:round;stroke-linejoin:round;opacity:.28}
      .accent{fill:#b77a36;opacity:.48}
      .line{stroke:#b77a36;stroke-width:3;stroke-linecap:round;fill:none;opacity:.48}
      .thin{stroke:#657069;stroke-width:1.7;stroke-linecap:round;fill:none;opacity:.3}
    </style>
  </defs>
  <rect width="900" height="1600" fill="url(#t12-paper)"/>
  <circle cx="720" cy="150" r="78" fill="#b77a36" opacity=".12"/>
  <path class="wash" d="M0 560 C90 480 156 538 238 442 C318 350 370 520 468 422 C592 300 718 468 860 378 L860 860 L0 860 Z"/>
  <path class="ink" d="M20 552 C88 492 154 536 230 450 C310 360 368 518 462 428 C584 310 704 470 838 386"/>
  <path class="thin" d="M182 610 C282 542 350 596 452 534 C546 476 648 546 806 500"/>
  <g transform="translate(550 184)"><path class="line" d="M0 260 C86 180 128 82 216 0"/><path d="M72 178 C118 146 128 172 88 200" fill="#b77a36" opacity=".28"/><path d="M88 163 C128 130 137 157 103 189" fill="#b77a36" opacity=".28"/><path d="M104 148 C138 114 146 142 118 178" fill="#b77a36" opacity=".28"/><path d="M120 133 C148 98 155 127 133 167" fill="#b77a36" opacity=".28"/><path d="M136 118 C158 82 164 112 148 156" fill="#b77a36" opacity=".28"/><path d="M152 103 C168 66 173 97 163 145" fill="#b77a36" opacity=".28"/><path d="M168 88 C178 50 182 82 178 134" fill="#b77a36" opacity=".28"/><path d="M184 73 C188 34 191 67 193 123" fill="#b77a36" opacity=".28"/><path d="M200 58 C198 18 200 52 208 112" fill="#b77a36" opacity=".28"/><path d="M216 43 C208 2 209 37 223 101" fill="#b77a36" opacity=".28"/></g>
  <path class="thin" d="M88 720 C188 668 270 712 360 654"/>
  <path class="thin" d="M580 1000 C672 960 742 1010 832 952"/>
  <text x="80" y="210" font-family="serif" font-size="96" fill="#222b2b" opacity=".92">立秋</text>
  <rect x="84" y="246" width="178" height="52" rx="26" fill="#fff7ea" stroke="#b77a36" stroke-width="2" opacity=".76"/>
  <text x="112" y="282" font-family="serif" font-size="28" fill="#b77a36" opacity=".9">二十四节气</text>
</svg>