<svg xmlns="http://www.w3.org/2000/svg" width="900" height="1600" viewBox="0 0 900 1600">
  <defs>
    <linearGradient id="t14-paper" x1="0" y1="0" x2="1" y2="1">
      <stop offset="0" stop-color="#fffaf1"/>
      <stop offset=".56" stop-color="#f8efe1"/>
      <stop offset="1" stop-color="#fff8ef"/>
    </linearGradient>
    <filter id="t14-blur"><feGaussianBlur stdDeviation="6"/></filter>
    <style>
      .wash{fill:#c8d2c9;opacity:.23;filter:url(#t14-blur)}
      .ink{fill:none;stroke:#657069;stroke-width:2.2;stroke-linecap:round;stroke-linejoin:round;opacity:.28}
      .accent{fill:#78906e;opacity:.48}
      .line{stroke:#78906e;stroke-width:3;stroke-linecap:round;fill:none;opacity:.48}
      .thin{stroke:#657069;stroke-width:1.7;stroke-linecap:round;fill:none;opacity:.3}
    </style>
  </defs>
  <rect width="900" height="1600" fill="url(#t14-paper)"/>
  <circle cx="720" cy="150" r="78" fill="#78906e" opacity=".12"/>
  <path class="wash" d="M0 560 C90 480 156 538 238 442 C318 350 370 520 468 422 C592 300 718 468 860 378 L860 860 L0 860 Z"/>
  <path class="ink" d="M20 552 C88 492 154 536 230 450 C310 360 368 518 462 428 C584 310 704 470 838 386"/>
  <path class="thin" d="M182 610 C282 542 350 596 452 534 C546 476 648 546 806 500"/>
  <g transform="translate(548 180)"><path class="line" d="M0 280 C6 186 2 70 42 0"/><ellipse cx="42" cy="0" rx="9" ry="42" fill="#78906e" opacity=".28" transform="rotate(-16 42 0)"/><path class="line" d="M28 280 C34 186 30 70 70 0"/><ellipse cx="70" cy="0" rx="9" ry="42" fill="#78906e" opacity=".28" transform="rotate(18 70 0)"/><path class="line" d="M56 280 C62 186 58 70 98 0"/><ellipse cx="98" cy="0" rx="9" ry="42" fill="#78906e" opacity=".28" transform="rotate(-16 98 0)"/><path class="line" d="M84 280 C90 186 86 70 126 0"/><ellipse cx="126" cy="0" rx="9" ry="42" fill="#78906e" opacity=".28" transform="rotate(18 126 0)"/><path class="line" d="M112 280 C118 186 114 70 154 0"/><ellipse cx="154" cy="0" rx="9" ry="42" fill="#78906e" opacity=".28" transform="rotate(-16 154 0)"/><path class="line" d="M140 280 C146 186 142 70 182 0"/><ellipse cx="182" cy="0" rx="9" ry="42" fill="#78906e" opacity=".28" transform="rotate(18 182 0)"/><path class="line" d="M168 280 C174 186 170 70 210 0"/><ellipse cx="210" cy="0" rx="9" ry="42" fill="#78906e" opacity=".28" transform="rotate(-16 210 0)"/><path class="line" d="M196 280 C202 186 198 70 238 0"/><ellipse cx="238" cy="0" rx="9" ry="42" fill="#78906e" opacity=".28" transform="rotate(18 238 0)"/><path class="line" d="M224 280 C230 186 226 70 266 0"/><ellipse cx="266" cy="0" rx="9" ry="42" fill="#78906e" opacity=".28" transform="rotate(-16 266 0)"/><path class="line" d="M252 280 C258 186 254 70 294 0"/><ellipse cx="294" cy="0" rx="9" ry="42" fill="#78906e" opacity=".28" transform="rotate(18 294 0)"/></g>
  <path class="thin" d="M88 720 C188 668 270 712 360 654"/>
  <path class="thin" d="M580 1000 C672 960 742 1010 832 952"/>
  <text x="80" y="210" font-family="serif" font-size="96" fill="#222b2b" opacity=".92">白露</text>
  <rect x="84" y="246" width="178" height="52" rx="26" fill="#fff7ea" stroke="#78906e" stroke-width="2" opacity=".76"/>
  <text x="112" y="282" font-family="serif" font-size="28" fill="#78906e" opacity=".9">二十四节气</text>
</svg>