<svg xmlns="http://www.w3.org/2000/svg" width="900" height="1600" viewBox="0 0 900 1600">
  <defs>
    <linearGradient id="t0-paper" x1="0" y1="0" x2="1" y2="1">
      <stop offset="0" stop-color="#fffaf1"/>
      <stop offset=".56" stop-color="#f8efe1"/>
      <stop offset="1" stop-color="#fff8ef"/>
    </linearGradient>
    <filter id="t0-blur"><feGaussianBlur stdDeviation="6"/></filter>
    <style>
      .wash{fill:#b9d6b0;opacity:.23;filter:url(#t0-blur)}
      .ink{fill:none;stroke:#657069;stroke-width:2.2;stroke-linecap:round;stroke-linejoin:round;opacity:.28}
      .accent{fill:#7fa56a;opacity:.48}
      .line{stroke:#7fa56a;stroke-width:3;stroke-linecap:round;fill:none;opacity:.48}
      .thin{stroke:#657069;stroke-width:1.7;stroke-linecap:round;fill:none;opacity:.3}
    </style>
  </defs>
  <rect width="900" height="1600" fill="url(#t0-paper)"/>
  <circle cx="720" cy="150" r="78" fill="#7fa56a" opacity=".12"/>
  <path class="wash" d="M0 560 C90 480 156 538 238 442 C318 350 370 520 468 422 C592 300 718 468 860 378 L860 860 L0 860 Z"/>
  <path class="ink" d="M20 552 C88 492 154 536 230 450 C310 360 368 518 462 428 C584 310 704 470 838 386"/>
  <path class="thin" d="M182 610 C282 542 350 596 452 534 C546 476 648 546 806 500"/>
  <g transform="translate(542 60)"><path class="thin" d="M0 0 C8 80 -18 132"/><path d="M2 66 C42 55 48 66 18 84" fill="#7fa56a" opacity=".22"/><path class="thin" d="M24 0 C28 90 0 148"/><path d="M22 78 C62 67 68 78 38 96" fill="#7fa56a" opacity=".22"/><path class="thin" d="M48 0 C48 100 18 164"/><path d="M42 90 C82 79 88 90 58 108" fill="#7fa56a" opacity=".22"/><path class="thin" d="M72 0 C68 110 36 180"/><path d="M62 102 C102 91 108 102 78 120" fill="#7fa56a" opacity=".22"/><path class="thin" d="M96 0 C88 120 54 196"/><path d="M82 114 C122 103 128 114 98 132" fill="#7fa56a" opacity=".22"/><path class="thin" d="M120 0 C108 130 72 212"/><path d="M102 126 C142 115 148 126 118 144" fill="#7fa56a" opacity=".22"/><path class="thin" d="M144 0 C128 140 90 228"/><path d="M122 138 C162 127 168 138 138 156" fill="#7fa56a" opacity=".22"/><path class="thin" d="M168 0 C148 150 108 244"/><path d="M142 150 C182 139 188 150 158 168" fill="#7fa56a" opacity=".22"/><path class="thin" d="M192 0 C168 160 126 260"/><path d="M162 162 C202 151 208 162 178 180" fill="#7fa56a" opacity=".22"/><path class="thin" d="M216 0 C188 170 144 276"/><path d="M182 174 C222 163 228 174 198 192" fill="#7fa56a" opacity=".22"/></g>
  <path class="thin" d="M88 720 C188 668 270 712 360 654"/>
  <path class="thin" d="M580 1000 C672 960 742 1010 832 952"/>
  <text x="80" y="210" font-family="serif" font-size="96" fill="#222b2b" opacity=".92">立春</text>
  <rect x="84" y="246" width="178" height="52" rx="26" fill="#fff7ea" stroke="#7fa56a" stroke-width="2" opacity=".76"/>
  <text x="112" y="282" font-family="serif" font-size="28" fill="#7fa56a" opacity=".9">二十四节气</text>
</svg>