<svg xmlns="http://www.w3.org/2000/svg" width="900" height="1600" viewBox="0 0 900 1600">
  <defs>
    <linearGradient id="t20-paper" x1="0" y1="0" x2="1" y2="1">
      <stop offset="0" stop-color="#fffaf1"/>
      <stop offset=".56" stop-color="#f8efe1"/>
      <stop offset="1" stop-color="#fff8ef"/>
    </linearGradient>
    <filter id="t20-blur"><feGaussianBlur stdDeviation="6"/></filter>
    <style>
      .wash{fill:#d8e0e4;opacity:.23;filter:url(#t20-blur)}
      .ink{fill:none;stroke:#657069;stroke-width:2.2;stroke-linecap:round;stroke-linejoin:round;opacity:.28}
      .accent{fill:#b8453d;opacity:.48}
      .line{stroke:#b8453d;stroke-width:3;stroke-linecap:round;fill:none;opacity:.48}
      .thin{stroke:#657069;stroke-width:1.7;stroke-linecap:round;fill:none;opacity:.3}
    </style>
  </defs>
  <rect width="900" height="1600" fill="url(#t20-paper)"/>
  <circle cx="720" cy="150" r="78" fill="#b8453d" opacity=".12"/>
  <path class="wash" d="M0 560 C90 480 156 538 238 442 C318 350 370 520 468 422 C592 300 718 468 860 378 L860 860 L0 860 Z"/>
  <path class="ink" d="M20 552 C88 492 154 536 230 450 C310 360 368 518 462 428 C584 310 704 470 838 386"/>
  <path class="thin" d="M182 610 C282 542 350 596 452 534 C546 476 648 546 806 500"/>
  <g transform="translate(518 174)"><path class="line" d="M0 260 C72 190 128 92 226 0"/><circle cx="70" cy="186" r="11" fill="#b8453d" opacity=".48"/><circle cx="88" cy="167" r="11" fill="#b8453d" opacity=".48"/><circle cx="106" cy="148" r="11" fill="#b8453d" opacity=".48"/><circle cx="124" cy="129" r="11" fill="#b8453d" opacity=".48"/><circle cx="142" cy="110" r="11" fill="#b8453d" opacity=".48"/><circle cx="160" cy="91" r="11" fill="#b8453d" opacity=".48"/><circle cx="178" cy="72" r="11" fill="#b8453d" opacity=".48"/><circle cx="196" cy="53" r="11" fill="#b8453d" opacity=".48"/><circle cx="214" cy="34" r="11" fill="#b8453d" opacity=".48"/></g>
  <path class="thin" d="M88 720 C188 668 270 712 360 654"/>
  <path class="thin" d="M580 1000 C672 960 742 1010 832 952"/>
  <text x="80" y="210" font-family="serif" font-size="96" fill="#222b2b" opacity=".92">大雪</text>
  <rect x="84" y="246" width="178" height="52" rx="26" fill="#fff7ea" stroke="#b8453d" stroke-width="2" opacity=".76"/>
  <text x="112" y="282" font-family="serif" font-size="28" fill="#b8453d" opacity=".9">二十四节气</text>
</svg>