<svg xmlns="http://www.w3.org/2000/svg" width="900" height="1600" viewBox="0 0 900 1600">
  <defs>
    <linearGradient id="t8-paper" x1="0" y1="0" x2="1" y2="1">
      <stop offset="0" stop-color="#fffaf1"/>
      <stop offset=".56" stop-color="#f8efe1"/>
      <stop offset="1" stop-color="#fff8ef"/>
    </linearGradient>
    <filter id="t8-blur"><feGaussianBlur stdDeviation="6"/></filter>
    <style>
      .wash{fill:#d6c18e;opacity:.23;filter:url(#t8-blur)}
      .ink{fill:none;stroke:#657069;stroke-width:2.2;stroke-linecap:round;stroke-linejoin:round;opacity:.28}
      .accent{fill:#a97e37;opacity:.48}
      .line{stroke:#a97e37;stroke-width:3;stroke-linecap:round;fill:none;opacity:.48}
      .thin{stroke:#657069;stroke-width:1.7;stroke-linecap:round;fill:none;opacity:.3}
    </style>
  </defs>
  <rect width="900" height="1600" fill="url(#t8-paper)"/>
  <circle cx="720" cy="150" r="78" fill="#a97e37" opacity=".12"/>
  <path class="wash" d="M0 560 C90 480 156 538 238 442 C318 350 370 520 468 422 C592 300 718 468 860 378 L860 860 L0 860 Z"/>
  <path class="ink" d="M20 552 C88 492 154 536 230 450 C310 360 368 518 462 428 C584 310 704 470 838 386"/>
  <path class="thin" d="M182 610 C282 542 350 596 452 534 C546 476 648 546 806 500"/>
  <g transform="translate(544 210)"><path class="line" d="M0 220 C8 138 6 78 30 0"/><ellipse cx="30" cy="20" rx="7" ry="17" fill="#a97e37" opacity=".35" transform="rotate(-28 30 20)"/><ellipse cx="32" cy="46" rx="7" ry="17" fill="#a97e37" opacity=".35" transform="rotate(28 32 46)"/><ellipse cx="34" cy="72" rx="7" ry="17" fill="#a97e37" opacity=".35" transform="rotate(-28 34 72)"/><ellipse cx="36" cy="98" rx="7" ry="17" fill="#a97e37" opacity=".35" transform="rotate(28 36 98)"/><ellipse cx="38" cy="124" rx="7" ry="17" fill="#a97e37" opacity=".35" transform="rotate(-28 38 124)"/><path class="line" d="M28 220 C36 138 34 78 58 0"/><ellipse cx="58" cy="20" rx="7" ry="17" fill="#a97e37" opacity=".35" transform="rotate(-28 58 20)"/><ellipse cx="60" cy="46" rx="7" ry="17" fill="#a97e37" opacity=".35" transform="rotate(28 60 46)"/><ellipse cx="62" cy="72" rx="7" ry="17" fill="#a97e37" opacity=".35" transform="rotate(-28 62 72)"/><ellipse cx="64" cy="98" rx="7" ry="17" fill="#a97e37" opacity=".35" transform="rotate(28 64 98)"/><ellipse cx="66" cy="124" rx="7" ry="17" fill="#a97e37" opacity=".35" transform="rotate(-28 66 124)"/><path class="line" d="M56 220 C64 138 62 78 86 0"/><ellipse cx="86" cy="20" rx="7" ry="17" fill="#a97e37" opacity=".35" transform="rotate(-28 86 20)"/><ellipse cx="88" cy="46" rx="7" ry="17" fill="#a97e37" opacity=".35" transform="rotate(28 88 46)"/><ellipse cx="90" cy="72" rx="7" ry="17" fill="#a97e37" opacity=".35" transform="rotate(-28 90 72)"/><ellipse cx="92" cy="98" rx="7" ry="17" fill="#a97e37" opacity=".35" transform="rotate(28 92 98)"/><ellipse cx="94" cy="124" rx="7" ry="17" fill="#a97e37" opacity=".35" transform="rotate(-28 94 124)"/><path class="line" d="M84 220 C92 138 90 78 114 0"/><ellipse cx="114" cy="20" rx="7" ry="17" fill="#a97e37" opacity=".35" transform="rotate(-28 114 20)"/><ellipse cx="116" cy="46" rx="7" ry="17" fill="#a97e37" opacity=".35" transform="rotate(28 116 46)"/><ellipse cx="118" cy="72" rx="7" ry="17" fill="#a97e37" opacity=".35" transform="rotate(-28 118 72)"/><ellipse cx="120" cy="98" rx="7" ry="17" fill="#a97e37" opacity=".35" transform="rotate(28 120 98)"/><ellipse cx="122" cy="124" rx="7" ry="17" fill="#a97e37" opacity=".35" transform="rotate(-28 122 124)"/><path class="line" d="M112 220 C120 138 118 78 142 0"/><ellipse cx="142" cy="20" rx="7" ry="17" fill="#a97e37" opacity=".35" transform="rotate(-28 142 20)"/><ellipse cx="144" cy="46" rx="7" ry="17" fill="#a97e37" opacity=".35" transform="rotate(28 144 46)"/><ellipse cx="146" cy="72" rx="7" ry="17" fill="#a97e37" opacity=".35" transform="rotate(-28 146 72)"/><ellipse cx="148" cy="98" rx="7" ry="17" fill="#a97e37" opacity=".35" transform="rotate(28 148 98)"/><ellipse cx="150" cy="124" rx="7" ry="17" fill="#a97e37" opacity=".35" transform="rotate(-28 150 124)"/><path class="line" d="M140 220 C148 138 146 78 170 0"/><ellipse cx="170" cy="20" rx="7" ry="17" fill="#a97e37" opacity=".35" transform="rotate(-28 170 20)"/><ellipse cx="172" cy="46" rx="7" ry="17" fill="#a97e37" opacity=".35" transform="rotate(28 172 46)"/><ellipse cx="174" cy="72" rx="7" ry="17" fill="#a97e37" opacity=".35" transform="rotate(-28 174 72)"/><ellipse cx="176" cy="98" rx="7" ry="17" fill="#a97e37" opacity=".35" transform="rotate(28 176 98)"/><ellipse cx="178" cy="124" rx="7" ry="17" fill="#a97e37" opacity=".35" transform="rotate(-28 178 124)"/><path class="line" d="M168 220 C176 138 174 78 198 0"/><ellipse cx="198" cy="20" rx="7" ry="17" fill="#a97e37" opacity=".35" transform="rotate(-28 198 20)"/><ellipse cx="200" cy="46" rx="7" ry="17" fill="#a97e37" opacity=".35" transform="rotate(28 200 46)"/><ellipse cx="202" cy="72" rx="7" ry="17" fill="#a97e37" opacity=".35" transform="rotate(-28 202 72)"/><ellipse cx="204" cy="98" rx="7" ry="17" fill="#a97e37" opacity=".35" transform="rotate(28 204 98)"/><ellipse cx="206" cy="124" rx="7" ry="17" fill="#a97e37" opacity=".35" transform="rotate(-28 206 124)"/><path class="line" d="M196 220 C204 138 202 78 226 0"/><ellipse cx="226" cy="20" rx="7" ry="17" fill="#a97e37" opacity=".35" transform="rotate(-28 226 20)"/><ellipse cx="228" cy="46" rx="7" ry="17" fill="#a97e37" opacity=".35" transform="rotate(28 228 46)"/><ellipse cx="230" cy="72" rx="7" ry="17" fill="#a97e37" opacity=".35" transform="rotate(-28 230 72)"/><ellipse cx="232" cy="98" rx="7" ry="17" fill="#a97e37" opacity=".35" transform="rotate(28 232 98)"/><ellipse cx="234" cy="124" rx="7" ry="17" fill="#a97e37" opacity=".35" transform="rotate(-28 234 124)"/></g>
  <path class="thin" d="M88 720 C188 668 270 712 360 654"/>
  <path class="thin" d="M580 1000 C672 960 742 1010 832 952"/>
  <text x="80" y="210" font-family="serif" font-size="96" fill="#222b2b" opacity=".92">芒种</text>
  <rect x="84" y="246" width="178" height="52" rx="26" fill="#fff7ea" stroke="#a97e37" stroke-width="2" opacity=".76"/>
  <text x="112" y="282" font-family="serif" font-size="28" fill="#a97e37" opacity=".9">二十四节气</text>
</svg>