<svg xmlns="http://www.w3.org/2000/svg" width="900" height="1600" viewBox="0 0 900 1600">
  <defs>
    <linearGradient id="t19-paper" x1="0" y1="0" x2="1" y2="1">
      <stop offset="0" stop-color="#fffaf1"/>
      <stop offset=".56" stop-color="#f8efe1"/>
      <stop offset="1" stop-color="#fff8ef"/>
    </linearGradient>
    <filter id="t19-blur"><feGaussianBlur stdDeviation="6"/></filter>
    <style>
      .wash{fill:#d6dde0;opacity:.23;filter:url(#t19-blur)}
      .ink{fill:none;stroke:#657069;stroke-width:2.2;stroke-linecap:round;stroke-linejoin:round;opacity:.28}
      .accent{fill:#728a95;opacity:.48}
      .line{stroke:#728a95;stroke-width:3;stroke-linecap:round;fill:none;opacity:.48}
      .thin{stroke:#657069;stroke-width:1.7;stroke-linecap:round;fill:none;opacity:.3}
    </style>
  </defs>
  <rect width="900" height="1600" fill="url(#t19-paper)"/>
  <circle cx="720" cy="150" r="78" fill="#728a95" opacity=".12"/>
  <path class="wash" d="M0 560 C90 480 156 538 238 442 C318 350 370 520 468 422 C592 300 718 468 860 378 L860 860 L0 860 Z"/>
  <path class="ink" d="M20 552 C88 492 154 536 230 450 C310 360 368 518 462 428 C584 310 704 470 838 386"/>
  <path class="thin" d="M182 610 C282 542 350 596 452 534 C546 476 648 546 806 500"/>
  <g transform="translate(520 130)"><circle cx="0" cy="0" r="2" fill="#7d9198" opacity=".25"/><circle cx="47" cy="83" r="3" fill="#7d9198" opacity=".25"/><circle cx="94" cy="166" r="4" fill="#7d9198" opacity=".25"/><circle cx="141" cy="249" r="5" fill="#7d9198" opacity=".25"/><circle cx="188" cy="332" r="2" fill="#7d9198" opacity=".25"/><circle cx="235" cy="55" r="3" fill="#7d9198" opacity=".25"/><circle cx="282" cy="138" r="4" fill="#7d9198" opacity=".25"/><circle cx="29" cy="221" r="5" fill="#7d9198" opacity=".25"/><circle cx="76" cy="304" r="2" fill="#7d9198" opacity=".25"/><circle cx="123" cy="27" r="3" fill="#7d9198" opacity=".25"/><circle cx="170" cy="110" r="4" fill="#7d9198" opacity=".25"/><circle cx="217" cy="193" r="5" fill="#7d9198" opacity=".25"/><circle cx="264" cy="276" r="2" fill="#7d9198" opacity=".25"/><circle cx="11" cy="359" r="3" fill="#7d9198" opacity=".25"/><circle cx="58" cy="82" r="4" fill="#7d9198" opacity=".25"/><circle cx="105" cy="165" r="5" fill="#7d9198" opacity=".25"/><circle cx="152" cy="248" r="2" fill="#7d9198" opacity=".25"/><circle cx="199" cy="331" r="3" fill="#7d9198" opacity=".25"/><circle cx="246" cy="54" r="4" fill="#7d9198" opacity=".25"/><circle cx="293" cy="137" r="5" fill="#7d9198" opacity=".25"/><circle cx="40" cy="220" r="2" fill="#7d9198" opacity=".25"/><circle cx="87" cy="303" r="3" fill="#7d9198" opacity=".25"/><circle cx="134" cy="26" r="4" fill="#7d9198" opacity=".25"/><circle cx="181" cy="109" r="5" fill="#7d9198" opacity=".25"/></g>
  <path class="thin" d="M88 720 C188 668 270 712 360 654"/>
  <path class="thin" d="M580 1000 C672 960 742 1010 832 952"/>
  <text x="80" y="210" font-family="serif" font-size="96" fill="#222b2b" opacity=".92">小雪</text>
  <rect x="84" y="246" width="178" height="52" rx="26" fill="#fff7ea" stroke="#728a95" stroke-width="2" opacity=".76"/>
  <text x="112" y="282" font-family="serif" font-size="28" fill="#728a95" opacity=".9">二十四节气</text>
</svg>